<svg xmlns="http://www.w3.org/2000/svg" viewBox="0 0 15 15">
  <path d="M8.5 0C12.01 0 14.87 2.78 15 6.27L15 6.5L15 6.73C14.88 9.98 12.38 12.63 9.19 12.96L9 12.98L9 11.98L9.16 11.96C11.88 11.64 14 9.32 14 6.5C14 3.46 11.54 1 8.5 1L7.5 1C3.91 1 1 3.91 1 7.5L1 8.5C1 11.54 3.46 14 6.5 14L7 14L7 11.08L6.58 11.01C5.09 10.76 4 9.47 4 7.96L4 7.25C4 5.46 5.46 4 7.25 4L8.5 4C9.88 4 11 5.12 11 6.5C11 7.88 9.88 9 8.5 9L7.5 9C6.67 9 6 8.33 6 7.5C6 6.67 6.67 6 7.5 6L8.5 6C8.78 6 9 6.22 9 6.5C9 6.78 8.78 7 8.5 7L7.5 7L7.41 7.01C7.18 7.05 7 7.25 7 7.5C7 7.78 7.22 8 7.5 8L8.5 8C9.33 8 10 7.33 10 6.5C10 5.67 9.33 5 8.5 5L7.5 5C6.12 5 5 6.12 5 7.5C5 8.88 6.12 10 7.5 10L8.5 10C10.43 10 12 8.43 12 6.5C12 4.57 10.43 3 8.5 3L7.25 3C4.9 3 3 4.9 3 7.25L3 7.96L3.01 8.16C3.09 9.87 4.23 11.33 5.82 11.85L6 11.9L6 12.97L5.87 12.96C3.68 12.65 2 10.25 2 8.5L2 7.5C2 4.46 4.46 2 7.5 2L8.5 2C10.99 2 13 4.01 13 6.5C13 8.99 10.99 11 8.5 11L8 11L8 14L8.5 14C10.57 14 12.45 13.16 13.81 11.8L15 10.5L15 12C14.75 12.26 14.62 12.4 14.61 12.41C13.12 13.95 11.05 14.93 8.76 15L8.5 15L6.5 15C2.91 15 0 12.09 0 8.5L0 7.5C0 3.36 3.36 0 7.5 0L8.5 0Z"/>
</svg>