<svg xmlns="http://www.w3.org/2000/svg" viewBox="0 0 15 15">
  <path d="M 7.5 0.99 C 5.01 0.99 3 3 3 5.49 C 3 7.98 5.01 9.99 7.5 9.99 C 9.99 9.99 12 7.98 12 5.49 C 12 3 9.99 0.99 7.5 0.99 z M 7.5 1.79 A 0.5 0.5 0 0 1 8 2.29 A 0.5 0.5 0 0 1 7.5 2.79 C 6 2.79 4.8 3.99 4.8 5.49 A 0.5 0.5 0 0 1 4.3 5.99 A 0.5 0.5 0 0 1 3.8 5.49 C 3.8 3.45 5.46 1.79 7.5 1.79 z M 10.68 6.53 A 0.25 0.25 0 0 1 10.78 6.54 A 0.25 0.25 0 0 1 10.91 6.87 C 10.58 7.69 9.96 8.37 9.17 8.77 A 0.25 0.25 0 0 1 8.84 8.66 A 0.25 0.25 0 0 1 8.95 8.32 C 9.63 7.98 10.16 7.39 10.45 6.68 A 0.25 0.25 0 0 1 10.68 6.53 z M 3 10 C 2.45 10 2 10.45 2 11 C 2 11.55 2.45 12 3 12 L 2 12 C 1.45 12 1 12.45 1 13 C 1 13.55 1.45 14 2 14 L 13 14 C 13.55 14 14 13.55 14 13 C 14 12.45 13.55 12 13 12 L 12 12 C 12.55 12 13 11.55 13 11 C 13 10.45 12.55 10 12 10 L 10.64 10 C 9.72 10.64 8.62 10.99 7.5 10.99 C 6.38 10.99 5.28 10.64 4.36 10 L 3 10 z" />
</svg>
