<svg viewBox="0 0 15 15" xmlns="http://www.w3.org/2000/svg">
   <path d="m7.5 15c4.1 0 7.5-3.4 7.5-7.5 0-0.62-0.077-1.2-0.22-1.8-0.81-3.3-3.8-5.7-7.3-5.7-0.76 0-1.5 0.11-2.2 0.32-3.1 0.93-5.3 3.8-5.3 7.2 0 4.1 3.4 7.5 7.5 7.5zm6.7-6.9 0.056 0.052c0.02 0.018 0.043 0.031 0.068 0.04-0.069 0.68-0.24 1.3-0.5 2-0.084 0.2-0.18 0.39-0.28 0.58-0.026-0.0068-0.053-0.0093-0.08-0.0051l-2.8 0.41-1.3-1.6 0.84-2.6 1.9-0.64zm-6.4-5.5 2.4-1.4c0.024-0.013 0.044-0.032 0.06-0.053 0.77 0.34 1.5 0.82 2.1 1.4 0.082 0.082 0.16 0.16 0.24 0.25-0.015 0.021-0.026 0.046-0.031 0.072l-0.53 2.7-2 0.66-2.2-1.6zm1.2 7.4 1.2 1.6-1.1 2.5c-0.011 0.025-0.015 0.052-0.015 0.078-0.53 0.13-1.1 0.19-1.6 0.19-0.55 0-1.1-0.065-1.6-0.19 4.2e-4 -0.027-0.0042-0.053-0.015-0.078l-1.1-2.5 1.2-1.6zm-6.4-7.3c0.6-0.6 1.3-1.1 2.1-1.4 0.0051 0.0068 0.01 0.013 0.016 0.02 0.013 0.013 0.027 0.024 0.043 0.034l2.4 1.4v2.1l-2.2 1.6-2-0.66-0.53-2.7c-0.0052-0.026-0.016-0.051-0.031-0.072 0.077-0.085 0.16-0.17 0.24-0.25zm-1.2 8.1c-0.1-0.19-0.2-0.38-0.28-0.58-0.27-0.63-0.44-1.3-0.5-2 0.025-0.0086 0.048-0.022 0.068-0.04l2-1.9 1.9 0.64 0.84 2.6-1.3 1.6-2.8-0.41c-0.027-0.0042-0.054-0.0017-0.08 0.0051z"/>
 </svg>
