<svg viewBox="0 0 15 15" xmlns="http://www.w3.org/2000/svg">
 <path d="m2 0v2h-2l2 2h1.2l2.8 2.8-0.25 0.75 3 1.2-1.2-3-0.75 0.25-2.8-2.8v-1.2l-2-2zm5.5 0a7.5 7.5 0 0 0-3.3 0.77l0.81 0.81v1a5.5 5.5 0 0 1 2.5-0.6 5.5 5.5 0 0 1 5.5 5.5 5.5 5.5 0 0 1-5.5 5.5 5.5 5.5 0 0 1-5.5-5.5 5.5 5.5 0 0 1 0.6-2.5h-1l-0.81-0.81a7.5 7.5 0 0 0-0.77 3.3 7.5 7.5 0 0 0 7.5 7.5 7.5 7.5 0 0 0 7.5-7.5 7.5 7.5 0 0 0-7.5-7.5zm0 3.5a4 4 0 0 0-1.5 0.3l1.2 1.2a2.5 2.5 0 0 1 0.31-0.02 2.5 2.5 0 0 1 2.5 2.5 2.5 2.5 0 0 1-2.5 2.5 2.5 2.5 0 0 1-2.5-2.5 2.5 2.5 0 0 1 0.021-0.32l-0.17-0.16-1.1-1.1a4 4 0 0 0-0.3 1.5 4 4 0 0 0 4 4 4 4 0 0 0 4-4 4 4 0 0 0-4-4z"/>
</svg>
