<svg xmlns="http://www.w3.org/2000/svg" viewBox="0 0 15 15">
  <path d="M4.5 3c-0.28 0 -0.5 0.22 -0.5 0.5c0 0.28 0.22 0.5 0.5 0.5H5.14L7.03 9.66C7.09 9.86 7.28 10 7.5 10h2C9.69 10 9.86 9.89 9.95 9.73L11.97 6.73C12.12 6.43 11.94 6.07 11.62 6.01L6.52 4.99L5.97 3.34C5.91 3.14 5.72 3 5.5 3Zm-1 3C2.12 6 1 7.13 1 8.51C1 9.89 2.12 11.02 3.5 11.02C4.88 11.02 6 9.89 6 8.51C6 7.13 4.88 6 3.5 6Zm0 0.93c0.87 0 1.57 0.7 1.57 1.58c0 0.88 -0.7 1.58 -1.57 1.58c-0.87 0 -1.57 -0.7 -1.57 -1.58c0 -0.88 0.7 -1.58 1.57 -1.58zm9 1.07c-0.82 0 -1.5 0.68 -1.5 1.51c0 0.83 0.68 1.5 1.5 1.5c0.82 0 1.5 -0.68 1.5 -1.5c0 -0.83 -0.68 -1.51 -1.5 -1.51zm0 0.81c0.39 0 0.69 0.31 0.69 0.7c0 0.39 -0.31 0.7 -0.69 0.7c-0.39 0 -0.69 -0.31 -0.69 -0.7c0 -0.39 0.31 -0.7 0.69 -0.7zM11.5 13L11 12L13 12L14 14L1 14L2 12L4 12L3.5 13L11.5 13ZM11.5 2L3.5 2L4 3L2 3L1 1L14 1L13 3L11 3L11.5 2Z"/>
</svg>