<svg xmlns="http://www.w3.org/2000/svg" viewBox="0 0 15 15">
<path d="M11.33 0.95 13.54 3.32 12.03 3.37C11.33 3.94 10.73 4.43 10.04 5 10.04 5 10.01 5.23 10.01 5.28 10.67 6.67 12.17 7.99 12.19 9.6 12.17 9.66 12.15 9.7 12.14 9.76 11.59 10.15 11.05 10.54 10.5 10.93 10.47 11.12 10.45 11.29 10.42 11.44 9.52 13.06 7.9 14.05 6.15 14.05 4.06 14.05 2.18 12.63 1.46 10.5 2.18 9.85 3.07 9.48 3.07 9.48 3.07 9.48 3.25 9.3 3.16 9.22 3.07 9.13 2.42 8.74 2.31 8.52 2.19 8.3 1.94 7.81 2.31 6.56 2.44 6.1 2.72 5.79 3.06 5.56 3.86 5.02 4.95 5.01 4.99 5.01 5.27 5.34 5.49 6.04 5.68 6.08 6.24 6.2 6.35 6.19 6.4 6.22 6.56 6.3 6.48 6.4 6.5 6.53L6.53 6.66C6.53 6.66 6.72 6.53 6.76 6.49 7.13 6.17 7.5 5.85 7.86 5.52 7.93 4.9 8.36 4.37 8.86 4.09 9.02 4 9.05 4.16 9.26 4.2 9.9 3.63 10.5 2.98 11.13 2.41ZM9.24 6.25C8.84 6.46 8.56 6.43 8.48 6.4 7.86 6.88 7.28 7.32 7.02 7.53 7.1 7.65 7.08 7.69 7.08 7.76 7.08 7.88 6.69 8.48 6.11 8.9H6.63C6.63 8.9 8.95 8.86 9.82 8.85 9.9 8.77 9.92 8.65 9.82 8.47 9.4 7.66 9.34 6.35 9.34 6.35Z" />
</svg>